<?xml version="1.0" encoding="UTF-8" standalone="no"?>
<!-- Uploaded to: SVG Repo, www.svgrepo.com, Generator: SVG Repo Mixer Tools -->

<svg
   width="800px"
   height="800px"
   viewBox="0 0 24 24"
   fill="none"
   version="1.1"
   id="svg8"
   sodipodi:docname="user.svg"
   inkscape:version="1.1.2 (0a00cf5339, 2022-02-04)"
   xmlns:inkscape="http://www.inkscape.org/namespaces/inkscape"
   xmlns:sodipodi="http://sodipodi.sourceforge.net/DTD/sodipodi-0.dtd"
   xmlns="http://www.w3.org/2000/svg"
   xmlns:svg="http://www.w3.org/2000/svg">
  <defs
     id="defs12" />
  <sodipodi:namedview
     id="namedview10"
     pagecolor="#ffffff"
     bordercolor="#666666"
     borderopacity="1.0"
     inkscape:pageshadow="2"
     inkscape:pageopacity="0.0"
     inkscape:pagecheckerboard="0"
     showgrid="false"
     inkscape:zoom="0.70533901"
     inkscape:cx="378.54137"
     inkscape:cy="523.86157"
     inkscape:window-width="1920"
     inkscape:window-height="999"
     inkscape:window-x="0"
     inkscape:window-y="0"
     inkscape:window-maximized="1"
     inkscape:current-layer="svg8" />
  <path
     fill-rule="evenodd"
     clip-rule="evenodd"
     d="M6 8C6 4.68629 8.68629 2 12 2C15.3137 2 18 4.68629 18 8C18 11.3137 15.3137 14 12 14C8.68629 14 6 11.3137 6 8Z"
     fill="#323232"
     id="path4" />
  <path
     fill-rule="evenodd"
     clip-rule="evenodd"
     d="M5.43094 16.9025C7.05587 16.2213 9.2233 16 12 16C14.771 16 16.9351 16.2204 18.5586 16.8981C20.3012 17.6255 21.3708 18.8613 21.941 20.6587C22.1528 21.3267 21.6518 22 20.9592 22H3.03459C2.34482 22 1.84679 21.3297 2.0569 20.6654C2.62537 18.8681 3.69119 17.6318 5.43094 16.9025Z"
     fill="#323232"
     id="path6" />
</svg>
